<mxfile host="app.diagrams.net" modified="2024-05-20T18:36:19.485Z" agent="Mozilla/5.0 (Windows NT 10.0; Win64; x64) AppleWebKit/537.36 (KHTML, like Gecko) Chrome/124.0.0.0 Safari/537.36" version="24.4.4" etag="AKtgTP5HpdpQKPoZQPFY" type="github">
  <diagram name="第 1 页" id="bv3gS5byZ8Ss3Qw6iujm">
    <mxGraphModel>
      <root>
        <mxCell id="0" />
        <mxCell id="1" parent="0" />
      </root>
    </mxGraphModel>
  </diagram>
</mxfile>
